<?xml version="1.0" encoding="utf-8"?>
<!-- Generator: Adobe Illustrator 16.0.0, SVG Export Plug-In . SVG Version: 6.00 Build 0)  -->
<!DOCTYPE svg PUBLIC "-//W3C//DTD SVG 1.1//EN" "http://www.w3.org/Graphics/SVG/1.1/DTD/svg11.dtd">
<svg version="1.1" id="Layer_1" xmlns="http://www.w3.org/2000/svg" xmlns:xlink="http://www.w3.org/1999/xlink" x="0px" y="0px"
	 width="101.667px" height="106.5px" viewBox="-1.833 0 101.667 106.5" enable-background="new -1.833 0 101.667 106.5"
	 xml:space="preserve">
<path d="M81.901,25.676c-0.086,0.182-0.188,0.356-0.338,0.509l-51.423,51.42c-0.2,0.344-0.479,0.648-0.874,0.799L3.741,85.553
	c-0.054,0.026-0.114,0.03-0.173,0.048l-0.086,0.025c-0.016,0.008-0.032,0.002-0.044,0.008c-0.174,0.046-0.345,0.086-0.527,0.082
	c-0.181,0.008-0.348-0.027-0.52-0.075c-0.039-0.012-0.073-0.004-0.113-0.017c-0.015-0.005-0.023-0.018-0.038-0.023
	c-0.162-0.061-0.302-0.152-0.443-0.258c-0.072-0.053-0.147-0.1-0.208-0.159c-0.061-0.062-0.106-0.138-0.159-0.21
	c-0.106-0.138-0.198-0.279-0.26-0.441c-0.008-0.015-0.019-0.025-0.024-0.04c-0.013-0.036-0.006-0.071-0.017-0.11
	c-0.046-0.169-0.079-0.34-0.075-0.52c0-0.184,0.037-0.356,0.083-0.528c0.007-0.015,0.002-0.028,0.007-0.041l0.026-0.092
	c0.02-0.056,0.024-0.117,0.048-0.17l7.15-25.525c0.151-0.398,0.453-0.672,0.799-0.876L59.804,5.994
	c0.071-0.083,0.158-0.153,0.233-0.233l0.552-0.552c0.029-0.028,0.064-0.037,0.094-0.063C63.342,2.603,66.914,1,70.889,1
	c8.187,0,14.828,6.639,14.828,14.828C85.717,19.625,84.253,23.054,81.901,25.676z M74.938,27.719l-6.67-6.669l-43.56,43.562
	c0.007,0.015,0.025,0.021,0.033,0.036l4.372,8.894L74.938,27.719z M5.669,81.105l5.132-1.437l-3.697-3.692L5.669,81.105z
	 M8.219,71.996l6.557,6.56l11.277-3.159c0,0-4.765-9.899-4.771-9.902l-9.903-4.772L8.219,71.996z M22.126,62.036
	c0.014,0.008,0.02,0.023,0.034,0.034l43.564-43.565l-6.67-6.668L13.231,57.661L22.126,62.036z M70.831,4.685
	c-3.281,0-6.214,1.43-8.271,3.675l-0.014-0.013L61.6,9.292l15.883,15.883l0.973-0.974l-0.014-0.01
	c2.229-2.058,3.646-4.978,3.646-8.249C82.088,9.725,77.047,4.685,70.831,4.685z"/>
</svg>
