<?xml version="1.0" encoding="utf-8"?>
<!-- Generator: Adobe Illustrator 16.0.0, SVG Export Plug-In . SVG Version: 6.00 Build 0)  -->
<!DOCTYPE svg PUBLIC "-//W3C//DTD SVG 1.1//EN" "http://www.w3.org/Graphics/SVG/1.1/DTD/svg11.dtd">
<svg version="1.1" id="Calque_1" xmlns="http://www.w3.org/2000/svg" xmlns:xlink="http://www.w3.org/1999/xlink" x="0px" y="0px"
	 width="160px" height="123.333px" viewBox="765.167 742.5 160 123.333" enable-background="new 765.167 742.5 160 123.333"
	 xml:space="preserve">
<path d="M803.539,811.481l-2.744,2.346c-0.366,0.313-0.787,0.47-1.262,0.47c-0.475,0-0.896-0.157-1.262-0.47l-25.572-21.87
	c-0.366-0.313-0.549-0.672-0.549-1.08s0.183-0.767,0.549-1.08l25.572-21.87c0.366-0.313,0.787-0.47,1.262-0.47
	c0.476,0,0.896,0.156,1.262,0.47l2.744,2.346c0.366,0.313,0.549,0.673,0.549,1.08s-0.183,0.767-0.549,1.08l-21.566,18.445
	l21.566,18.444c0.366,0.313,0.549,0.673,0.549,1.08C804.087,810.809,803.904,811.168,803.539,811.481z M835.969,761.403
	l-20.468,60.591c-0.146,0.406-0.43,0.711-0.851,0.915c-0.421,0.204-0.85,0.243-1.289,0.118l-3.403-0.798
	c-0.476-0.125-0.832-0.368-1.07-0.728c-0.238-0.36-0.283-0.743-0.137-1.149l20.468-60.591c0.147-0.406,0.431-0.712,0.852-0.915
	c0.419-0.204,0.851-0.242,1.289-0.117l3.402,0.797c0.475,0.125,0.833,0.368,1.071,0.728
	C836.07,760.614,836.117,760.997,835.969,761.403z M872.023,791.958l-25.572,21.87c-0.366,0.313-0.787,0.47-1.263,0.47
	s-0.896-0.157-1.262-0.47l-2.743-2.346c-0.367-0.313-0.549-0.672-0.549-1.08c0-0.407,0.182-0.767,0.549-1.08l21.566-18.444
	l-21.566-18.445c-0.367-0.312-0.549-0.673-0.549-1.08s0.182-0.767,0.549-1.08l2.743-2.346c0.366-0.313,0.786-0.47,1.262-0.47
	s0.896,0.156,1.263,0.47l25.572,21.87c0.365,0.313,0.549,0.673,0.549,1.08S872.388,791.645,872.023,791.958z"/>
</svg>
